<svg width="481" height="160" viewBox="0 0 481 160" fill="none" xmlns="http://www.w3.org/2000/svg">
<rect x="-0.117705" y="0.486387" width="125.658" height="170.877" transform="matrix(0.723785 0.690025 -0.959194 0.282748 165.297 0.696133)" stroke="black" stroke-opacity="0.1"/>
<rect x="-0.117705" y="0.486387" width="125.658" height="170.877" transform="matrix(0.723785 0.690025 -0.959194 0.282748 170.607 3.70767)" stroke="black" stroke-opacity="0.1"/>
<rect x="-0.117705" y="0.486387" width="125.658" height="170.877" transform="matrix(0.723785 0.690025 -0.959194 0.282748 179.138 5.7698)" stroke="black" stroke-opacity="0.1"/>
<rect x="-0.117705" y="0.486387" width="125.658" height="170.877" transform="matrix(0.723785 0.690025 -0.959194 0.282748 190.696 6.93966)" stroke="black" stroke-opacity="0.1"/>
<rect x="-0.117705" y="0.486387" width="125.658" height="170.877" transform="matrix(0.723785 0.690025 -0.959194 0.282748 204.966 7.31002)" stroke="black" stroke-opacity="0.1"/>
<rect x="-0.117705" y="0.486387" width="125.658" height="170.877" transform="matrix(0.723785 0.690025 -0.959194 0.282748 221.525 7.00546)" stroke="black" stroke-opacity="0.1"/>
<rect x="-0.117705" y="0.486387" width="125.658" height="170.877" transform="matrix(0.723785 0.690025 -0.959194 0.282748 239.86 6.17749)" stroke="black" stroke-opacity="0.1"/>
<rect x="-0.117705" y="0.486387" width="125.658" height="170.877" transform="matrix(0.723785 0.690025 -0.959194 0.282748 259.386 4.9985)" stroke="black" stroke-opacity="0.1"/>
<rect x="-0.117705" y="0.486387" width="125.658" height="170.877" transform="matrix(0.723785 0.690025 -0.959194 0.282748 279.471 3.65487)" stroke="black" stroke-opacity="0.1"/>
<rect x="-0.117705" y="0.486387" width="125.658" height="170.877" transform="matrix(0.723785 0.690025 -0.959194 0.282748 299.46 2.3395)" stroke="black" stroke-opacity="0.1"/>
<rect x="-0.117705" y="0.486387" width="125.658" height="170.877" transform="matrix(0.723785 0.690025 -0.959194 0.282748 318.701 1.24423)" stroke="black" stroke-opacity="0.1"/>
<rect x="-0.117705" y="0.486387" width="125.658" height="170.877" transform="matrix(0.723785 0.690025 -0.959194 0.282748 336.576 0.552121)" stroke="black" stroke-opacity="0.1"/>
<rect x="-0.117705" y="0.486387" width="125.658" height="170.877" transform="matrix(0.723785 0.690025 -0.959194 0.282748 352.516 0.430081)" stroke="black" stroke-opacity="0.1"/>
<rect x="-0.117705" y="0.486387" width="125.658" height="170.877" transform="matrix(0.723785 0.690025 -0.959194 0.282748 366.033 1.02237)" stroke="black" stroke-opacity="0.1"/>
<rect x="-0.117705" y="0.486387" width="125.658" height="170.877" transform="matrix(0.723785 0.690025 -0.959194 0.282748 376.734 2.44476)" stroke="black" stroke-opacity="0.1"/>
<rect x="-0.117705" y="0.486387" width="125.658" height="170.877" transform="matrix(0.723785 0.690025 -0.959194 0.282748 384.339 4.77987)" stroke="black" stroke-opacity="0.1"/>
<rect x="-0.117705" y="0.486387" width="125.658" height="170.877" transform="matrix(0.723785 0.690025 -0.959194 0.282748 388.69 8.07403)" stroke="black" stroke-opacity="0.1"/>
<rect x="-0.117705" y="0.486387" width="125.658" height="170.877" transform="matrix(0.723785 0.690025 -0.959194 0.282748 389.761 12.3352)" stroke="black" stroke-opacity="0.1"/>
<rect x="-0.117705" y="0.486387" width="125.658" height="170.877" transform="matrix(0.723785 0.690025 -0.959194 0.282748 387.654 17.533)" stroke="black" stroke-opacity="0.1"/>
<rect x="-0.117705" y="0.486387" width="125.658" height="170.877" transform="matrix(0.723785 0.690025 -0.959194 0.282748 382.601 23.5995)" stroke="black" stroke-opacity="0.1"/>
</svg>
