<svg width="44" height="66" viewBox="0 0 44 66" fill="none" xmlns="http://www.w3.org/2000/svg">
<path d="M9.49565 2.08937C1.0703 4.25022 0.700861 21.6273 2.18542 23.993C7.00299 37.7678 16.1335 40.8626 23.8617 33.7177C25.7133 32.0058 25.4761 28.1398 24.4749 25.921C22.891 22.4108 20.0446 21.5463 16.8672 22.5202C11.0951 24.2894 5.26182 31.7559 6.98666 39.1911C9.68589 50.8266 19.5661 56.7075 29.1087 57.9942C31.0095 58.2505 45.3267 57.3325 37.5775 54.8089C36.1711 54.3509 31.9162 53.176 33.2951 53.7378C35.5814 54.6693 36.8991 55.0798 39.381 55.1083C39.8737 55.1139 42.4537 54.7175 41.5443 56.0001C39.6824 58.6263 37.9999 61.409 36.0843 63.989" stroke="black" stroke-width="3" stroke-linecap="round"/>
</svg>
