<svg width="202" height="87" viewBox="0 0 202 87" fill="none" xmlns="http://www.w3.org/2000/svg">
<path d="M1.37445 85.0264C1.37445 85.0264 10.6754 67.3181 32.756 57.1125C55.1992 46.7393 90.4186 43.8388 92.7537 59.3738C94.0097 67.7305 89.0451 75.3187 76.3226 79.582C63.6427 83.831 53.6642 81.2338 48.5287 74.3402C37.5337 59.5812 67.2851 35.301 94.3947 26.0918C121.559 16.8641 160.748 17.8575 160.894 36.3139C160.963 44.9461 154.968 53.2246 142.185 57.2929C129.656 61.2807 119.251 58.9227 114.392 52.0511C104.024 37.3906 131.373 11.858 158.36 4.44509C175.98 -0.395077 189.389 0.737914 200.172 7.97807" stroke="black" stroke-width="2.3" stroke-linecap="round"/>
</svg>
