<svg width="150" height="73" viewBox="0 0 150 73" fill="none" xmlns="http://www.w3.org/2000/svg">
<path d="M42.4999 51.4615C44.4974 51.463 46.4749 51.0632 48.315 50.286C50.1554 49.5086 51.8208 48.3696 53.2126 46.9364L53.7891 46.3428L53.3138 45.6654C52.494 44.497 51.4496 43.5035 50.2417 42.7431C48.0464 41.3353 45.2977 40.5769 42.5 40.5769C39.7021 40.5769 36.9535 41.3354 34.7561 42.743C33.5489 43.5038 32.5053 44.4973 31.686 45.6656L31.211 46.343L31.7875 46.9365C33.1793 48.3695 34.8448 49.5084 36.6851 50.2857C38.5251 51.0629 40.5025 51.4628 42.4999 51.4615ZM42.4999 51.4615C42.4997 51.4615 42.4995 51.4615 42.4992 51.4615L42.5 50.4615L42.5007 51.4615C42.5004 51.4615 42.5002 51.4615 42.4999 51.4615ZM37.7888 28.5807L37.7882 28.5814C36.5681 29.8769 35.9895 31.6214 36.1251 33.46L36.1251 33.4601C36.3852 36.9804 39.1366 40.0385 42.5 40.0385C45.8644 40.0385 48.6094 36.9794 48.8747 33.4624L48.8748 33.4619C49.0119 31.6315 48.4295 29.8925 47.2029 28.5907C45.994 27.3077 44.3236 26.6154 42.5 26.6154C40.6814 26.6154 38.9968 27.3003 37.7888 28.5807ZM27 36.5C27 27.9543 33.9543 21 42.5 21C51.0457 21 58 27.9543 58 36.5C58 45.0457 51.0457 52 42.5 52C33.9543 52 27 45.0457 27 36.5Z" fill="#8F5A70" stroke="black" stroke-width="2"/>
<path d="M69.6875 47V26.375H72.1133V44.9961H75.9219V47H69.6875ZM81.5352 47.2109C80.707 47.2109 80.0352 47.0703 79.5195 46.7891C79.0039 46.5 78.6055 46.0938 78.3242 45.5703C78.0508 45.0391 77.8633 44.4062 77.7617 43.6719C77.6602 42.9297 77.6094 42.1016 77.6094 41.1875V34.9648C77.6094 33.8633 77.7148 32.8789 77.9258 32.0117C78.1367 31.1445 78.5234 30.4609 79.0859 29.9609C79.6562 29.4609 80.4727 29.2109 81.5352 29.2109C82.332 29.2109 82.9844 29.3555 83.4922 29.6445C84 29.9258 84.3945 30.3281 84.6758 30.8516C84.957 31.3672 85.1484 31.9766 85.25 32.6797C85.3594 33.375 85.4141 34.1367 85.4141 34.9648V41.1875C85.4141 42.0859 85.3672 42.9023 85.2734 43.6367C85.1797 44.3711 84.9961 45.0078 84.7227 45.5469C84.457 46.0781 84.0664 46.4883 83.5508 46.7773C83.043 47.0664 82.3711 47.2109 81.5352 47.2109ZM81.5352 45.207C81.957 45.207 82.2695 45.0664 82.4727 44.7852C82.6836 44.5039 82.8242 44.1133 82.8945 43.6133C82.9648 43.1055 83 42.5195 83 41.8555V34.4844C83 33.8281 82.9648 33.2578 82.8945 32.7734C82.8242 32.2812 82.6836 31.8984 82.4727 31.625C82.2617 31.3516 81.9492 31.2148 81.5352 31.2148C81.0977 31.2148 80.7695 31.3516 80.5508 31.625C80.332 31.8984 80.1875 32.2812 80.1172 32.7734C80.0547 33.2578 80.0234 33.8281 80.0234 34.4844V41.8555C80.0234 42.5195 80.0547 43.1055 80.1172 43.6133C80.1875 44.1133 80.332 44.5039 80.5508 44.7852C80.7695 45.0664 81.0977 45.207 81.5352 45.207ZM92.0938 49.6836C91.2891 49.707 90.5625 49.6172 89.9141 49.4141C89.2734 49.2109 88.7227 48.9258 88.2617 48.5586L89.1289 46.918C89.4727 47.1523 89.8789 47.3594 90.3477 47.5391C90.8164 47.7188 91.3594 47.8008 91.9766 47.7852C92.5234 47.7695 92.9453 47.5625 93.2422 47.1641C93.5469 46.7734 93.6992 46.2461 93.6992 45.582V43.9062C93.4727 44.4844 93.1602 44.8711 92.7617 45.0664C92.3633 45.2617 91.9102 45.3594 91.4023 45.3594C90.582 45.3594 89.9453 45.1211 89.4922 44.6445C89.0469 44.168 88.7344 43.5156 88.5547 42.6875C88.3828 41.8594 88.2969 40.9219 88.2969 39.875V34.8359C88.2969 33.7656 88.3984 32.8047 88.6016 31.9531C88.8125 31.1016 89.1602 30.4297 89.6445 29.9375C90.1289 29.4375 90.7852 29.1953 91.6133 29.2109C92.1133 29.2188 92.543 29.3438 92.9023 29.5859C93.2695 29.8281 93.5352 30.2031 93.6992 30.7109V29.4219H96.1016V45.3594C96.1016 45.8594 96.0391 46.3594 95.9141 46.8594C95.7969 47.3594 95.5898 47.8164 95.293 48.2305C95.0039 48.6523 94.5977 48.9922 94.0742 49.25C93.5586 49.5156 92.8984 49.6602 92.0938 49.6836ZM92.3281 43.4492C92.6406 43.4492 92.8984 43.3555 93.1016 43.168C93.3047 42.9805 93.4531 42.6328 93.5469 42.125C93.6484 41.6094 93.6992 40.8711 93.6992 39.9102V34.4844C93.6992 33.4141 93.6016 32.6016 93.4062 32.0469C93.2188 31.4922 92.8203 31.2148 92.2109 31.2148C91.7656 31.2148 91.4336 31.3555 91.2148 31.6367C91.0039 31.9102 90.8672 32.2891 90.8047 32.7734C90.7422 33.2578 90.7109 33.8203 90.7109 34.4609V39.9336C90.7109 41.0977 90.8164 41.9766 91.0273 42.5703C91.2383 43.1562 91.6719 43.4492 92.3281 43.4492ZM105.301 47V29.4219H107.715V47H105.301ZM105.301 27.8047V25.6016H107.715V27.8047H105.301ZM111.137 47V29.4219H113.539V31.2852C113.695 30.7383 114.027 30.2539 114.535 29.832C115.051 29.4102 115.664 29.1992 116.375 29.1992C117.258 29.1992 117.945 29.5117 118.438 30.1367C118.93 30.7617 119.176 31.7109 119.176 32.9844V47H116.773V32.9961C116.773 32.3711 116.633 31.918 116.352 31.6367C116.07 31.3555 115.711 31.2148 115.273 31.2148C114.953 31.2148 114.66 31.2852 114.395 31.4258C114.129 31.5664 113.918 31.7852 113.762 32.082C113.613 32.3789 113.539 32.7617 113.539 33.2305V47H111.137Z" fill="black"/>
<path d="M128.161 12.7875C129.611 13.5182 130.88 14.1576 132.149 14.797C137.406 17.5373 142.209 21.0082 145.835 25.8494C150.82 32.3346 151.364 39.642 147.285 46.858C145.2 50.603 142.3 53.5259 138.946 56.0835C132.33 61.016 124.898 64.1216 117.103 66.5878C105.683 70.1501 93.9903 72.0683 82.1168 72.7077C69.2463 73.4384 56.4664 72.799 43.6865 70.7895C34.4415 69.4194 25.2871 67.2272 16.6766 63.2082C13.323 61.6553 9.9694 59.6458 7.06901 57.2709C-0.453901 50.9684 -2.08537 41.1948 2.71841 32.5173C5.07498 28.2242 8.42857 24.6619 12.1447 21.5563C21.0272 14.1576 31.2692 9.49918 42.1457 6.11953C57.1009 1.4611 72.328 -0.457082 87.9176 0.0909694C98.2503 0.456337 108.583 1.4611 118.553 4.38403C121.544 5.20611 124.354 6.4849 127.254 7.581C127.979 7.85502 128.614 8.31173 129.248 8.76844C130.88 10.0472 130.789 11.1433 128.976 12.3308C128.795 12.5135 128.523 12.6048 128.161 12.7875ZM83.7483 4.65806C83.7483 4.56672 83.7483 4.47538 83.7483 4.38403C83.2045 4.38403 82.57 4.29269 82.0262 4.29269C69.4276 4.38403 57.0102 6.21087 44.8648 9.86454C34.3509 12.9702 24.2901 17.3546 15.6796 24.3879C12.2353 27.2195 9.06303 30.3251 6.79709 34.2528C2.62777 41.5602 3.98733 49.5069 10.5132 54.622C12.9604 56.5402 15.6796 58.093 18.4893 59.3718C26.1029 62.9341 34.1696 64.8523 42.327 66.3138C54.1098 68.4146 65.9833 68.9627 77.8568 68.6887C91.815 68.3233 105.592 66.1311 118.825 61.564C125.079 59.3718 131.061 56.7229 136.409 52.7952C139.672 50.329 142.481 47.406 144.294 43.661C146.288 39.4593 146.469 35.1662 144.113 31.0558C143.206 29.503 142.028 27.9502 140.85 26.6714C136.952 22.4697 132.239 19.5468 126.982 17.2632C120.456 14.4316 113.749 12.3308 106.77 10.9606C97.5252 9.04247 88.1895 8.12905 78.8539 10.0472C78.4007 10.1386 77.7662 10.3213 77.4037 10.1386C76.7692 9.7732 75.9535 9.31649 75.7722 8.76844C75.5909 8.22039 76.1347 7.30697 76.5879 6.85026C77.1317 6.39355 77.9475 6.21087 78.6726 6.02819C80.3947 5.38879 82.0262 5.02343 83.7483 4.65806ZM112.752 7.581C117.193 9.04247 121.544 10.4126 125.985 11.8741C121.907 9.22515 117.465 8.12905 112.752 7.581Z" fill="black"/>
</svg>
